<?xml version="1.0" standalone="no"?>
<!DOCTYPE svg PUBLIC "-//W3C//DTD SVG 20010904//EN"
 "http://www.w3.org/TR/2001/REC-SVG-20010904/DTD/svg10.dtd">
<svg version="1.0" xmlns="http://www.w3.org/2000/svg"
 width="512.000000pt" height="512.000000pt" viewBox="0 0 512.000000 512.000000"
 preserveAspectRatio="xMidYMid meet">

<g transform="translate(0.000000,512.000000) scale(0.100000,-0.100000)"
fill="#007FCE" stroke="none">
<path d="M1500 5106 c-195 -28 -375 -83 -532 -162 -95 -48 -118 -72 -118 -122
0 -45 25 -80 69 -93 34 -10 44 -8 135 36 226 108 417 150 671 150 288 -1 511
-60 753 -197 l72 -42 -94 -96 c-131 -133 -134 -158 -37 -262 l59 -63 -26 -50
c-14 -28 -40 -90 -58 -140 l-32 -90 -96 -5 c-150 -8 -141 14 -141 -350 0 -365
-9 -342 142 -350 l96 -5 22 -65 c12 -36 38 -99 57 -141 l35 -76 -58 -60 c-61
-63 -76 -95 -64 -140 9 -38 379 -409 422 -425 l32 -12 -73 -76 c-86 -90 -144
-174 -192 -273 -34 -72 -74 -209 -74 -254 l0 -23 -747 0 -748 0 -16 83 c-36
185 -115 319 -307 520 -193 201 -300 375 -376 609 -55 169 -71 278 -70 478 0
141 5 195 23 280 30 142 72 265 132 385 27 55 49 112 49 127 0 16 -12 41 -29
60 -24 27 -36 33 -69 33 -55 0 -75 -21 -132 -136 -238 -473 -237 -1045 2
-1523 93 -187 182 -309 356 -487 51 -53 104 -113 118 -133 47 -68 93 -180 110
-265 l16 -83 -50 -52 c-28 -28 -64 -78 -79 -111 -24 -51 -28 -73 -28 -145 0
-72 4 -94 29 -147 27 -59 120 -163 145 -163 5 0 -2 -26 -17 -57 -23 -50 -27
-71 -27 -153 0 -82 4 -103 27 -152 54 -115 168 -194 297 -205 l67 -6 22 -70
c61 -193 233 -351 430 -392 293 -63 585 109 675 396 l21 66 67 6 c128 11 244
91 297 205 23 49 27 70 27 152 0 82 -4 103 -27 153 -15 31 -22 57 -17 57 25 0
118 104 145 163 25 53 29 75 29 147 0 72 -4 94 -28 145 -15 33 -51 83 -79 111
l-50 52 16 83 c18 88 65 200 115 271 16 24 71 86 123 138 71 72 203 225 213
247 1 2 33 -8 71 -20 l69 -24 5 -96 c8 -150 -12 -141 333 -145 172 -2 294 1
310 7 44 17 61 54 65 151 l4 87 57 18 c31 9 92 34 137 54 l80 38 62 -58 c66
-62 95 -75 139 -64 38 9 419 390 428 428 12 45 -3 77 -64 140 l-58 60 34 73
c19 40 45 103 58 141 l22 68 96 5 c151 8 142 -14 142 350 0 364 9 342 -141
350 l-95 5 -28 80 c-15 44 -42 107 -59 140 l-30 60 58 61 c62 64 77 96 65 141
-9 38 -390 419 -427 428 -46 12 -78 -3 -142 -64 l-61 -58 -76 37 c-42 20 -104
45 -137 56 l-60 19 -4 86 c-4 96 -21 133 -65 150 -16 6 -138 9 -310 7 -345 -4
-325 5 -333 -145 l-5 -96 -68 -22 c-38 -13 -101 -39 -141 -58 l-73 -34 -60 58
c-85 82 -129 88 -197 29 l-34 -30 -79 48 c-186 116 -369 184 -608 228 -114 22
-388 26 -505 10z m2270 -238 c0 -66 15 -120 38 -141 10 -9 58 -28 108 -42 49
-14 148 -54 221 -90 153 -77 158 -77 239 -2 l56 50 105 -106 106 -105 -50 -56
c-75 -81 -75 -86 2 -239 36 -73 76 -172 90 -221 14 -50 33 -98 42 -108 21 -23
75 -38 141 -38 l52 0 0 -149 0 -148 -81 -5 c-104 -6 -119 -20 -154 -143 -14
-49 -54 -148 -89 -220 -76 -153 -76 -161 -3 -241 l50 -56 -106 -106 -106 -106
-53 50 c-80 76 -87 76 -241 0 -73 -36 -172 -77 -221 -91 -50 -14 -98 -33 -108
-42 -23 -21 -38 -75 -38 -140 l0 -53 -149 0 -148 0 -5 80 c-5 93 -25 123 -92
141 -104 28 -199 65 -294 115 -124 66 -137 65 -218 -9 l-56 -50 -106 106 -106
106 50 53 c76 80 76 87 0 241 -36 73 -77 173 -91 222 -35 123 -50 137 -154
143 l-81 5 0 153 0 154 79 0 c106 0 122 14 156 135 14 50 54 149 91 221 76
154 76 162 0 242 l-50 53 106 106 106 106 56 -50 c80 -73 88 -73 241 3 72 35
171 75 220 89 123 35 137 50 143 154 l5 81 148 0 149 0 0 -52z m-1224 -3374
c53 -39 69 -71 69 -134 0 -63 -16 -95 -69 -134 -27 -21 -38 -21 -804 -24 -527
-2 -789 0 -814 8 -101 29 -140 168 -71 251 52 61 16 59 875 56 777 -2 787 -2
814 -23z m-129 -520 c98 -73 98 -195 0 -268 -28 -21 -34 -21 -697 -21 -663 0
-669 0 -697 21 -89 66 -99 179 -21 251 12 12 34 26 48 32 16 6 259 9 682 8
649 -2 657 -2 685 -23z m-337 -507 c0 -32 -56 -121 -106 -166 -75 -69 -145
-95 -254 -95 -109 0 -179 26 -254 95 -50 45 -106 134 -106 166 0 10 71 13 360
13 289 0 360 -3 360 -13z"/>
<path d="M3475 4295 c-305 -67 -527 -330 -542 -640 -6 -131 13 -222 73 -345
38 -77 62 -110 128 -176 236 -236 589 -271 868 -87 187 123 308 347 308 573 0
327 -244 621 -564 679 -78 14 -196 13 -271 -4z m247 -196 c90 -19 175 -66 243
-134 193 -193 193 -497 -1 -691 -192 -192 -496 -191 -690 2 -192 191 -191 497
0 688 120 120 284 169 448 135z"/>
<path d="M517 4622 c-52 -54 -24 -151 46 -164 98 -19 161 96 91 166 -38 37
-100 37 -137 -2z"/>
</g>
</svg>
