<?xml version="1.0" standalone="no"?>
<!DOCTYPE svg PUBLIC "-//W3C//DTD SVG 20010904//EN"
 "http://www.w3.org/TR/2001/REC-SVG-20010904/DTD/svg10.dtd">
<svg version="1.0" xmlns="http://www.w3.org/2000/svg"
 width="512.000000pt" height="512.000000pt" viewBox="0 0 512.000000 512.000000"
 preserveAspectRatio="xMidYMid meet">

<g transform="translate(0.000000,512.000000) scale(0.100000,-0.100000)"
fill="#007FCE" stroke="none">
<path d="M2287 4995 c-289 -36 -552 -117 -818 -250 l-106 -53 25 124 c23 116
24 125 8 149 -33 50 -107 45 -131 -8 -8 -17 -33 -125 -55 -238 -42 -216 -43
-245 -3 -267 34 -19 447 -96 476 -88 54 13 67 109 18 135 -9 5 -70 20 -134 32
-64 13 -117 26 -117 29 0 9 217 112 305 146 543 206 1155 201 1690 -13 119
-48 266 -123 348 -178 29 -19 64 -35 79 -35 55 0 94 69 64 114 -35 55 -345
216 -546 284 -133 45 -292 85 -435 107 -139 23 -526 28 -668 10z"/>
<path d="M2049 4426 c-91 -32 -159 -126 -159 -215 0 -51 29 -123 63 -159 34
-36 96 -64 157 -71 l55 -6 0 -450 c0 -442 0 -451 -22 -490 -28 -53 -63 -84
-153 -135 -264 -152 -458 -383 -549 -655 -85 -254 -82 -538 9 -787 120 -329
401 -597 743 -709 642 -210 1333 170 1503 828 31 120 42 316 25 446 -50 371
-272 702 -584 869 -45 23 -101 62 -124 85 -72 72 -74 85 -71 573 l3 425 66 7
c80 7 114 24 162 77 96 106 66 274 -62 349 l-46 27 -490 2 c-382 2 -498 0
-526 -11z m981 -149 c14 -7 31 -25 38 -41 17 -35 2 -78 -34 -95 -17 -8 -163
-11 -480 -11 l-456 0 -30 30 c-24 25 -29 36 -23 58 8 33 23 52 50 62 11 5 220
9 465 9 340 1 451 -2 470 -12z m-238 -764 l3 -468 33 -68 c43 -88 108 -151
217 -210 106 -58 181 -115 256 -193 289 -306 360 -784 171 -1159 -56 -113
-109 -184 -207 -280 -399 -392 -1038 -386 -1436 14 -129 130 -227 302 -271
477 -30 119 -32 340 -4 459 70 303 253 537 551 705 80 46 140 108 176 183 16
34 29 68 29 75 0 8 22 12 75 12 88 0 115 17 115 74 0 53 -36 76 -116 76 l-64
0 0 45 0 45 64 0 c79 0 116 24 116 75 0 58 -27 79 -109 83 l-71 4 0 39 0 39
68 0 c55 0 73 4 90 20 29 27 29 76 0 107 -18 20 -31 23 -90 23 l-68 0 0 39 0
39 71 4 c60 3 74 8 90 27 25 31 25 83 -2 107 -15 13 -40 20 -90 22 -65 4 -69
6 -69 28 l0 24 235 0 234 0 3 -467z"/>
<path d="M2095 2681 c-198 -111 -356 -303 -424 -518 -33 -105 -56 -258 -46
-304 12 -55 81 -77 125 -41 19 16 24 33 31 113 22 259 158 476 384 614 84 51
104 79 86 122 -12 28 -46 53 -74 53 -7 0 -43 -18 -82 -39z"/>
<path d="M3022 2099 c-103 -51 -155 -136 -156 -254 -1 -166 122 -290 290 -290
307 0 397 419 119 551 -76 36 -172 34 -253 -7z m205 -140 c81 -50 85 -167 7
-228 -20 -16 -41 -21 -82 -21 -50 0 -58 3 -93 39 -34 34 -39 44 -39 85 0 26 7
60 15 77 34 65 126 88 192 48z"/>
<path d="M2725 1481 c-82 -37 -125 -103 -125 -192 0 -85 45 -154 125 -190 56
-26 112 -24 172 6 154 77 155 292 2 369 -62 31 -118 33 -174 7z m113 -147 c51
-35 8 -117 -50 -95 -42 16 -50 59 -18 91 24 24 38 25 68 4z"/>
<path d="M523 3935 c-53 -37 -213 -347 -281 -545 -84 -245 -120 -452 -129
-730 -13 -437 68 -803 263 -1193 42 -83 50 -107 37 -103 -10 3 -68 15 -130 27
-105 20 -114 21 -138 5 -44 -29 -46 -104 -4 -127 34 -18 460 -99 486 -93 13 4
30 15 37 26 21 29 101 447 92 481 -13 54 -109 67 -135 18 -5 -9 -20 -70 -32
-134 -13 -64 -26 -117 -29 -117 -9 0 -113 218 -146 305 -106 282 -149 519
-148 830 0 255 25 435 91 660 53 182 159 415 248 548 48 72 47 115 -6 142 -35
19 -49 19 -76 0z"/>
<path d="M4483 3940 c-12 -5 -26 -17 -31 -27 -19 -34 -96 -447 -88 -476 13
-54 109 -67 135 -18 5 9 19 69 31 134 12 64 25 117 29 117 10 0 112 -213 147
-305 190 -501 202 -1047 35 -1555 -56 -168 -124 -316 -204 -447 -31 -50 -57
-103 -57 -117 0 -53 70 -91 114 -62 44 28 176 268 249 451 172 432 214 973
111 1434 -40 179 -106 369 -189 538 -54 112 -70 153 -57 149 9 -3 67 -15 129
-27 105 -20 114 -21 138 -5 44 29 46 104 4 127 -18 9 -452 100 -469 98 -3 0
-15 -4 -27 -9z"/>
<path d="M3417 748 c-28 -22 -36 -60 -22 -95 15 -35 27 -40 183 -69 50 -10 92
-21 92 -24 0 -9 -218 -113 -305 -145 -510 -193 -1054 -203 -1569 -31 -151 50
-345 140 -451 210 -39 26 -82 46 -98 46 -54 0 -93 -69 -63 -114 28 -44 268
-176 451 -249 432 -172 973 -214 1434 -111 178 40 369 106 536 187 l151 74
-24 -123 c-23 -116 -24 -125 -8 -149 33 -50 107 -45 131 8 8 17 33 125 55 238
43 216 43 246 3 267 -22 12 -418 92 -454 92 -14 0 -33 -6 -42 -12z"/>
</g>
</svg>
