<?xml version="1.0" standalone="no"?>
<!DOCTYPE svg PUBLIC "-//W3C//DTD SVG 20010904//EN"
 "http://www.w3.org/TR/2001/REC-SVG-20010904/DTD/svg10.dtd">
<svg version="1.0" xmlns="http://www.w3.org/2000/svg"
 width="512.000000pt" height="512.000000pt" viewBox="0 0 512.000000 512.000000"
 preserveAspectRatio="xMidYMid meet">

<g transform="translate(0.000000,512.000000) scale(0.100000,-0.100000)"
fill="#007FCE" stroke="none">
<path d="M69 5041 l-29 -29 0 -527 0 -527 29 -29 29 -29 532 0 532 0 29 29 29
29 0 216 0 216 172 0 173 0 -97 -97 c-101 -102 -119 -131 -111 -176 7 -34 56
-77 89 -77 45 0 76 26 261 212 181 183 202 212 188 260 -9 28 -359 384 -399
405 -65 34 -136 -13 -136 -90 0 -37 7 -47 102 -143 l102 -104 -172 0 -172 0 0
214 0 214 -26 31 -26 31 -535 0 -535 0 -29 -29z m951 -311 l0 -150 -186 0
-186 0 -29 -29 c-40 -41 -40 -91 0 -132 l29 -29 186 0 186 0 0 -150 0 -150
-390 0 -390 0 0 395 0 395 390 0 390 0 0 -150z"/>
<path d="M2009 5041 l-29 -29 0 -526 0 -526 29 -32 29 -33 532 0 532 0 29 33
29 32 0 215 0 215 165 0 c91 0 165 -3 165 -6 0 -3 -45 -52 -100 -109 -84 -87
-100 -108 -100 -135 0 -45 55 -100 101 -100 30 0 54 20 236 203 195 195 203
204 203 242 0 37 -8 47 -198 237 -169 171 -202 199 -234 204 -33 6 -41 3 -73
-29 -60 -60 -53 -82 65 -202 55 -55 100 -104 100 -108 0 -4 -74 -7 -165 -7
l-165 0 0 216 0 216 -29 29 -29 29 -532 0 -532 0 -29 -29z m951 -311 l0 -150
-141 0 c-81 0 -149 -5 -161 -11 -32 -17 -51 -74 -38 -115 20 -58 37 -64 197
-64 l143 0 0 -150 0 -150 -390 0 -390 0 0 395 0 395 390 0 390 0 0 -150z"/>
<path d="M3949 5041 l-29 -29 0 -527 0 -527 29 -29 29 -29 216 0 216 0 0 -235
0 -235 -986 0 -986 0 -29 -29 -29 -29 0 -331 c0 -182 -3 -331 -7 -331 -4 0
-52 44 -105 97 -91 90 -101 98 -137 98 -73 0 -121 -78 -88 -141 25 -47 379
-391 407 -396 56 -9 84 11 263 189 98 98 185 191 194 207 41 78 -46 173 -123
133 -16 -9 -67 -54 -114 -101 -46 -47 -88 -86 -92 -86 -5 0 -7 118 -6 263 l3
262 992 5 992 5 23 23 c23 22 23 25 26 327 l3 305 215 0 216 0 29 29 29 29 0
527 0 527 -29 29 -29 29 -532 0 -532 0 -29 -29z m951 -556 l0 -395 -145 0
-145 0 0 170 c0 215 -14 250 -100 250 -86 0 -100 -35 -100 -250 l0 -170 -145
0 -145 0 0 395 0 395 390 0 390 0 0 -395z"/>
<path d="M3543 2275 c-12 -8 -254 -267 -539 -575 -284 -308 -520 -560 -524
-560 -4 0 -56 54 -115 121 -60 66 -122 131 -138 145 -41 34 -90 32 -128 -5
-36 -37 -39 -84 -6 -130 39 -54 311 -347 339 -365 33 -20 63 -20 96 0 22 13
272 279 630 670 51 55 49 57 112 -72 162 -328 105 -723 -144 -991 -164 -176
-365 -269 -607 -280 -258 -12 -474 72 -659 257 -177 177 -260 376 -260 624 0
282 123 531 344 698 187 141 417 205 636 177 136 -18 149 -17 182 20 31 35 35
68 13 110 -25 49 -116 71 -298 71 -277 0 -530 -101 -732 -292 -334 -316 -433
-784 -255 -1212 75 -180 229 -363 398 -474 440 -289 1013 -223 1376 159 46 48
105 122 131 164 227 364 220 830 -19 1183 l-36 53 173 185 c94 102 176 195
180 207 13 34 -1 84 -30 107 -31 24 -89 26 -120 5z"/>
</g>
</svg>
